<svg width="63" height="35" viewBox="0 0 63 35" fill="none" xmlns="http://www.w3.org/2000/svg">
<path d="M19.6935 34.5C18.6735 34.5 17.6648 34.2053 16.6675 33.616C15.6928 33.0493 14.4462 32.1653 12.9275 30.964C11.7942 30.0573 10.8195 29.3207 10.0035 28.754C9.21017 28.21 8.3375 27.7453 7.3855 27.36C6.45617 26.9747 5.50417 26.782 4.5295 26.782C4.1895 26.782 3.92883 26.7933 3.7475 26.816L8.8135 3.254C7.29483 3.866 6.11617 4.80667 5.2775 6.076C4.4615 7.32267 4.0535 8.85267 4.0535 10.666C4.0535 11.5047 4.13283 12.094 4.2915 12.434C4.45017 12.7513 4.5295 12.9327 4.5295 12.978C3.3055 12.978 2.3875 12.7287 1.7755 12.23C1.18617 11.7087 0.8915 10.8587 0.8915 9.68C0.8915 8.22933 1.48083 6.824 2.6595 5.464C3.86083 4.08133 5.39083 2.97067 7.2495 2.132C9.10817 1.27067 10.9668 0.84 12.8255 0.84C13.1428 0.84 13.5962 0.862666 14.1855 0.907999L8.9495 25.32C9.58417 25.4787 10.2302 25.7053 10.8875 26C11.5675 26.3173 12.3835 26.7367 13.3355 27.258C14.8088 28.0513 16.0668 28.652 17.1095 29.06C18.1522 29.4907 19.2402 29.706 20.3735 29.706C21.3935 29.706 22.3455 29.5247 23.2295 29.162C23.0482 30.8167 22.6402 32.12 22.0055 33.072C21.3935 34.024 20.6228 34.5 19.6935 34.5ZM18.5343 26.136C16.857 26.136 15.531 25.7053 14.5563 24.844C13.5816 23.9827 13.0943 22.6227 13.0943 20.764C13.0943 19.2227 13.4116 17.5113 14.0463 15.63C14.681 13.7487 15.701 12.128 17.1063 10.768C18.5116 9.38533 20.2796 8.694 22.4103 8.694C25.3116 8.694 26.7623 10.5073 26.7623 14.134V14.168C26.8303 14.1907 26.955 14.202 27.1363 14.202C27.8843 14.202 28.7456 14.0093 29.7203 13.624C30.695 13.216 31.579 12.7287 32.3723 12.162L32.6783 13.08C32.021 13.7827 31.1596 14.3833 30.0943 14.882C29.0516 15.358 27.907 15.698 26.6603 15.902C26.479 17.9647 26.0143 19.7667 25.2663 21.308C24.5183 22.8493 23.555 24.0393 22.3763 24.878C21.1976 25.7167 19.917 26.136 18.5343 26.136ZM19.8943 23.076C20.4383 23.076 20.9823 22.77 21.5263 22.158C22.0703 21.5233 22.5463 20.6733 22.9543 19.608C23.3623 18.52 23.657 17.3187 23.8383 16.004C23.2263 15.868 22.9203 15.392 22.9203 14.576C22.9203 13.6467 23.2716 13.0347 23.9743 12.74C23.929 11.992 23.8156 11.482 23.6343 11.21C23.453 10.9153 23.1356 10.768 22.6823 10.768C21.9343 10.768 21.209 11.312 20.5063 12.4C19.8036 13.488 19.237 14.7913 18.8063 16.31C18.3756 17.8287 18.1603 19.166 18.1603 20.322C18.1603 21.41 18.285 22.1467 18.5343 22.532C18.7836 22.8947 19.237 23.076 19.8943 23.076ZM34.5297 34.5C33.4417 34.5 32.5351 34.2167 31.8097 33.65C31.0844 33.0833 30.7217 32.2673 30.7217 31.202C30.7217 29.91 31.2431 28.8673 32.2857 28.074C33.3284 27.3033 34.6544 26.6573 36.2637 26.136L36.6717 24.334C35.5157 25.5807 34.1557 26.204 32.5917 26.204C31.2997 26.204 30.2231 25.762 29.3617 24.878C28.5004 23.994 28.0697 22.6113 28.0697 20.73C28.0697 19.0527 28.3984 17.296 29.0557 15.46C29.7357 13.6013 30.7331 12.0373 32.0477 10.768C33.3851 9.476 34.9717 8.83 36.8077 8.83C37.7371 8.83 38.4284 8.98867 38.8817 9.306C39.3351 9.62333 39.5617 10.0427 39.5617 10.564V10.768L39.9357 9H44.8317L41.4657 24.776C42.5537 24.4133 43.4264 23.8693 44.0837 23.144C44.7411 22.4187 45.2964 21.342 45.7497 19.914H47.1777C46.5657 21.9313 45.7384 23.416 44.6957 24.368C43.6531 25.2973 42.4744 25.932 41.1597 26.272L40.6497 28.72C40.1964 30.9187 39.4144 32.426 38.3037 33.242C37.1931 34.0807 35.9351 34.5 34.5297 34.5ZM34.8017 22.906C35.3231 22.906 35.8557 22.668 36.3997 22.192C36.9437 21.716 37.3177 21.07 37.5217 20.254L39.2557 12.196C39.2557 11.924 39.1424 11.652 38.9157 11.38C38.6891 11.0853 38.3377 10.938 37.8617 10.938C36.9551 10.938 36.1391 11.4707 35.4137 12.536C34.6884 13.5787 34.1217 14.848 33.7137 16.344C33.3057 17.8173 33.1017 19.1207 33.1017 20.254C33.1017 21.3873 33.2604 22.1127 33.5777 22.43C33.9177 22.7473 34.3257 22.906 34.8017 22.906ZM33.7477 31.848C34.1331 31.848 34.5071 31.5873 34.8697 31.066C35.2324 30.5447 35.5157 29.7967 35.7197 28.822L35.9237 27.836C33.7024 28.652 32.5917 29.6153 32.5917 30.726C32.5917 31.0207 32.6937 31.2813 32.8977 31.508C33.1017 31.7347 33.3851 31.848 33.7477 31.848ZM50.7081 26.136C49.0308 26.136 47.7048 25.7053 46.7301 24.844C45.7555 23.9827 45.2681 22.6227 45.2681 20.764C45.2681 19.2 45.5741 17.4887 46.1861 15.63C46.7981 13.7487 47.7955 12.128 49.1781 10.768C50.5608 9.38533 52.3288 8.694 54.4821 8.694C57.1568 8.694 58.5961 10.224 58.8001 13.284C59.2988 13.1707 59.7408 12.8987 60.1261 12.468C60.5115 12.0147 60.8741 11.5047 61.2141 10.938H62.3021C61.6901 12.162 61.1461 13.1253 60.6701 13.828C60.1941 14.508 59.5708 15.0633 58.8001 15.494C58.6641 17.6247 58.2221 19.4947 57.4741 21.104C56.7488 22.7133 55.7968 23.96 54.6181 24.844C53.4395 25.7053 52.1361 26.136 50.7081 26.136ZM52.0681 23.076C52.9068 23.076 53.6888 22.396 54.4141 21.036C55.1395 19.676 55.6381 17.9987 55.9101 16.004C55.3661 15.8 55.0941 15.29 55.0941 14.474C55.0941 13.59 55.4115 13.0007 56.0461 12.706C56.0008 11.9807 55.8761 11.482 55.6721 11.21C55.4908 10.9153 55.1848 10.768 54.7541 10.768C54.0061 10.768 53.2921 11.312 52.6121 12.4C51.9321 13.4653 51.3768 14.7687 50.9461 16.31C50.5381 17.8287 50.3341 19.166 50.3341 20.322C50.3341 21.41 50.4588 22.1467 50.7081 22.532C50.9575 22.8947 51.4108 23.076 52.0681 23.076Z" fill="#8A8A8A"/>
</svg>
