<svg width="59" height="59" viewBox="0 0 59 59" fill="none" xmlns="http://www.w3.org/2000/svg">
<path d="M29.5001 4.91663C15.9522 4.91663 4.91675 15.9521 4.91675 29.5C4.91675 43.0478 15.9522 54.0833 29.5001 54.0833C43.048 54.0833 54.0834 43.0478 54.0834 29.5C54.0834 15.9521 43.048 4.91663 29.5001 4.91663ZM29.5001 9.83329C40.3908 9.83329 49.1668 18.6092 49.1668 29.5C49.1668 39.3689 41.9523 47.4778 32.4962 48.917V35.3625H38.2195L39.1174 29.548H32.4962V26.3694C32.4962 23.9529 33.2834 21.8081 35.5451 21.8081H39.175V16.733C38.5358 16.6469 37.1869 16.4593 34.6376 16.4593C29.3129 16.4593 26.1919 19.2716 26.1919 25.678V29.548H20.7183V35.3625H26.1919V48.8689C16.8895 47.3004 9.83342 39.2601 9.83342 29.5C9.83342 18.6092 18.6094 9.83329 29.5001 9.83329Z" fill="#16205F"/>
</svg>
