<svg width="59" height="59" viewBox="0 0 59 59" fill="none" xmlns="http://www.w3.org/2000/svg">
<path d="M12.2917 7.375C9.57521 7.375 7.375 9.57521 7.375 12.2917V46.7083C7.375 49.4248 9.57521 51.625 12.2917 51.625H46.7083C49.4248 51.625 51.625 49.4248 51.625 46.7083V12.2917C51.625 9.57521 49.4248 7.375 46.7083 7.375H12.2917ZM12.2917 12.2917H46.7083V46.7083H12.2917V12.2917ZM19.1241 15.5278C17.0173 15.5278 15.7535 16.7943 15.7535 18.4807C15.7535 20.1671 17.0175 21.4288 18.9128 21.4288C21.0196 21.4288 22.2834 20.1671 22.2834 18.4807C22.2834 16.7943 21.0195 15.5278 19.1241 15.5278ZM15.9215 24.5833V41.7917H22.125V24.5833H15.9215ZM27.2433 24.5833V41.7917H33.4468V32.3857C33.4468 29.5856 35.4445 29.1831 36.0444 29.1831C36.6442 29.1831 38.2482 29.7847 38.2482 32.3857V41.7917H44.25V32.3857C44.25 26.9847 41.85 24.5833 38.8484 24.5833C35.8468 24.5833 34.2457 25.5828 33.4468 26.984V24.5833H27.2433Z" fill="#16205F"/>
</svg>
