<svg width="60" height="59" viewBox="0 0 60 59" fill="none" xmlns="http://www.w3.org/2000/svg">
<path d="M20 7.375C13.1075 7.375 7.5 12.889 7.5 19.6667V39.3333C7.5 46.111 13.1075 51.625 20 51.625H40C46.8925 51.625 52.5 46.111 52.5 39.3333V19.6667C52.5 12.889 46.8925 7.375 40 7.375H20ZM20 12.2917H40C44.135 12.2917 47.5 15.6006 47.5 19.6667V39.3333C47.5 43.3994 44.135 46.7083 40 46.7083H20C15.865 46.7083 12.5 43.3994 12.5 39.3333V19.6667C12.5 15.6006 15.865 12.2917 20 12.2917ZM42.5 14.75C41.837 14.75 41.2011 15.009 40.7322 15.47C40.2634 15.9311 40 16.5563 40 17.2083C40 17.8603 40.2634 18.4856 40.7322 18.9466C41.2011 19.4077 41.837 19.6667 42.5 19.6667C43.163 19.6667 43.7989 19.4077 44.2678 18.9466C44.7366 18.4856 45 17.8603 45 17.2083C45 16.5563 44.7366 15.9311 44.2678 15.47C43.7989 15.009 43.163 14.75 42.5 14.75ZM30 17.2083C23.1075 17.2083 17.5 22.7224 17.5 29.5C17.5 36.2776 23.1075 41.7917 30 41.7917C36.8925 41.7917 42.5 36.2776 42.5 29.5C42.5 22.7224 36.8925 17.2083 30 17.2083ZM30 22.125C34.135 22.125 37.5 25.4339 37.5 29.5C37.5 33.5661 34.135 36.875 30 36.875C25.865 36.875 22.5 33.5661 22.5 29.5C22.5 25.4339 25.865 22.125 30 22.125Z" fill="#16205F"/>
</svg>
