<svg width="59" height="59" viewBox="0 0 59 59" fill="none" xmlns="http://www.w3.org/2000/svg">
<path d="M12.2917 7.375C9.58012 7.375 7.375 9.58012 7.375 12.2917V46.7083C7.375 49.4199 9.58012 51.625 12.2917 51.625H46.7083C49.4199 51.625 51.625 49.4199 51.625 46.7083V12.2917C51.625 9.58012 49.4199 7.375 46.7083 7.375H12.2917ZM12.2917 12.2917H46.7083L46.7131 46.7083H12.2917V12.2917ZM35.8091 17.4868C32.4362 17.4868 29.6969 20.2287 29.6969 23.599C29.6969 24.2308 29.9081 24.6527 29.9081 25.0731C24.8513 24.8641 20.4272 22.3362 17.4772 18.7544C16.8454 19.5976 16.6322 20.6478 16.6322 21.7025C16.6322 23.8093 17.6874 25.4994 19.3738 26.9744C18.3216 26.763 17.4754 26.5498 16.6322 26.1294C16.6322 29.0794 18.7382 31.3986 21.4768 32.0304C20.845 32.2418 20.4233 32.2416 19.7915 32.2416C19.5801 32.2416 19.1556 32.0304 18.7352 32.0304C19.5784 34.3486 21.6863 36.2412 24.4249 36.2412C22.3181 37.7162 19.5772 38.7716 16.8386 38.7716H15.3646C18.1032 40.4555 21.2658 41.5132 24.6361 41.5132C35.8044 41.5132 41.9165 32.2396 41.9165 24.2328V23.3878C42.9711 22.5446 44.0213 21.4921 44.8694 20.2236C43.6058 20.8579 42.5511 21.0685 41.2875 21.2799C42.5511 20.4392 43.604 19.3843 44.0243 17.9093C42.9697 18.5411 41.7062 19.172 40.2312 19.3834C39.1766 18.1198 37.4955 17.4868 35.8091 17.4868Z" fill="#16205F"/>
</svg>
