<svg width="59" height="59" viewBox="0 0 59 59" fill="none" xmlns="http://www.w3.org/2000/svg">
<path d="M29.4998 9.83337C29.4998 9.83337 14.1243 9.8333 10.2893 10.8609C8.17268 11.4263 6.50943 13.092 5.94401 15.2062C4.91643 19.0412 4.9165 29.5 4.9165 29.5C4.9165 29.5 4.91643 39.9589 5.94401 43.7939C6.50943 45.9105 8.17514 47.5738 10.2893 48.1392C14.1243 49.1668 29.4998 49.1667 29.4998 49.1667C29.4998 49.1667 44.8754 49.1668 48.7104 48.1392C50.8245 47.5738 52.4902 45.9081 53.0557 43.7939C54.0833 39.9589 54.0832 29.5 54.0832 29.5C54.0832 29.5 54.0833 19.0412 53.0557 15.2062C52.4902 13.092 50.8245 11.4263 48.7104 10.8609C44.8754 9.8333 29.4998 9.83337 29.4998 9.83337ZM29.4998 14.75C36.5848 14.75 45.4566 15.0785 47.438 15.6095C47.8535 15.7201 48.194 16.0606 48.307 16.4786C48.8995 18.6861 49.1665 25.4241 49.1665 29.5C49.1665 33.576 48.8995 40.3115 48.307 42.5215C48.1964 42.937 47.8559 43.2775 47.438 43.3906C45.459 43.9216 36.5848 44.25 29.4998 44.25C22.4174 44.25 13.5456 43.9216 11.5617 43.3906C11.1462 43.28 10.8057 42.9394 10.6926 42.5215C10.1002 40.3139 9.83317 33.576 9.83317 29.5C9.83317 25.4241 10.1002 18.6863 10.6926 16.4738C10.8033 16.0608 11.1438 15.7201 11.5617 15.6095C13.5406 15.0785 22.4149 14.75 29.4998 14.75ZM24.5832 20.9823V38.0178L39.3332 29.5L24.5832 20.9823Z" fill="#16205F"/>
</svg>
