<svg width="30" height="30" viewBox="0 0 30 30" fill="none" xmlns="http://www.w3.org/2000/svg">
<path d="M6.25 3.75024C4.86875 3.75024 3.75 4.86899 3.75 6.25024V23.7502C3.75 25.1315 4.86875 26.2502 6.25 26.2502H23.75C25.1313 26.2502 26.25 25.1315 26.25 23.7502V6.25024C26.25 4.86899 25.1313 3.75024 23.75 3.75024H6.25ZM6.25 6.25024H23.75V23.7502H6.25V6.25024ZM9.72412 7.89575C8.65287 7.89575 8.01025 8.53972 8.01025 9.39722C8.01025 10.2547 8.65295 10.8962 9.6167 10.8962C10.6879 10.8962 11.3306 10.2547 11.3306 9.39722C11.3306 8.53972 10.6879 7.89575 9.72412 7.89575ZM8.0957 12.5002V21.2502H11.25V12.5002H8.0957ZM13.8525 12.5002V21.2502H17.0068V16.4675C17.0068 15.0438 18.0226 14.8391 18.3276 14.8391C18.6326 14.8391 19.4482 15.145 19.4482 16.4675V21.2502H22.5V16.4675C22.5 13.7213 21.2797 12.5002 19.7534 12.5002C18.2272 12.5002 17.4131 13.0084 17.0068 13.7209V12.5002H13.8525Z" fill="#16205F"/>
</svg>
